<mxfile host="Electron" agent="Mozilla/5.0 (Macintosh; Intel Mac OS X 10_15_7) AppleWebKit/537.36 (KHTML, like Gecko) draw.io/26.0.16 Chrome/132.0.6834.196 Electron/34.2.0 Safari/537.36" version="26.0.16">
  <diagram name="Home Page" id="so1c2dzz_iZpUSpOuqgX">
    <mxGraphModel dx="662" dy="470" grid="0" gridSize="50" guides="1" tooltips="1" connect="1" arrows="1" fold="1" page="0" pageScale="1" pageWidth="19200" pageHeight="10800" backgroundImage="{&quot;src&quot;:&quot;data:image/svg+xml;base64,PHN2ZyB4bWxuczp4bGluaz0iaHR0cDovL3d3dy53My5vcmcvMTk5OS94bGluayIgeG1sbnM9Imh0dHA6Ly93d3cudzMub3JnLzIwMDAvc3ZnIiBmaWxsPSJub25lIiB2aWV3Qm94PSIwIDAgMTkyMDAgMTA4MDAiIGhlaWdodD0iMTA4MDAiIHdpZHRoPSIxOTIwMCI+JiN4YTs8cmVjdCBmaWxsPSJ1cmwoI3BhdHRlcm4wXzIyOV82MTQ0KSIgaGVpZ2h0PSIxMDgwMCIgd2lkdGg9IjE5MjAwIi8+JiN4YTs8ZGVmcz4mI3hhOzxwYXR0ZXJuIGhlaWdodD0iMC4wMDIyMjIyMiIgd2lkdGg9IjAuMDAxMjUiIHBhdHRlcm5Db250ZW50VW5pdHM9Im9iamVjdEJvdW5kaW5nQm94IiBpZD0icGF0dGVybjBfMjI5XzYxNDQiPiYjeGE7PHVzZSB0cmFuc2Zvcm09InNjYWxlKDUuMjA4MzNlLTA1IDkuMjU5MjZlLTA1KSIgeGxpbms6aHJlZj0iI2ltYWdlMF8yMjlfNjE0NCIvPiYjeGE7PC9wYXR0ZXJuPiYjeGE7PGltYWdlIHhsaW5rOmhyZWY9ImRhdGE6aW1hZ2UvcG5nO2Jhc2U2NCxpVkJPUncwS0dnb0FBQUFOU1VoRVVnQUFBQmdBQUFBWUNBWUFBQURnZHozNEFBQUFDWEJJV1hNQUFBc1RBQUFMRXdFQW1wd1lBQUFBQVhOU1IwSUFyczRjNlFBQUFBUm5RVTFCQUFDeGp3djhZUVVBQUFCa1NVUkJWSGdCN2RZeEZZQkFEQVBRSEFwT0FtakFCeGJRZ0FOd2dCWWVObmhJNEJ5QUFhNmtIam93NUEvdGx0ZXRTZHRoQnFBTWZlb1FpTGszVjI0NEhoZ1dCSHNORXk4dkVCRVJrWC9nOTcvMjAwWUU4MHh2RnQ0cTJscXhJaGd6WjY3OEFVVnlJUU4wK1JqTkFBQUFBRWxGVGtTdVFtQ0MiIHByZXNlcnZlQXNwZWN0UmF0aW89Im5vbmUiIGhlaWdodD0iMjQiIHdpZHRoPSIyNCIgaWQ9ImltYWdlMF8yMjlfNjE0NCIvPiYjeGE7PC9kZWZzPiYjeGE7PC9zdmc+&quot;,&quot;width&quot;:&quot;19200&quot;,&quot;height&quot;:&quot;10800&quot;,&quot;x&quot;:0,&quot;y&quot;:0}" math="0" shadow="0">
      <root>
        <mxCell id="0" />
        <mxCell id="1" parent="0" />
        <mxCell id="mGn7jOfgkNFTlXE9YCIS-1" value="" style="group;labelBackgroundColor=default;rounded=1;shadow=0;glass=0;pointerEvents=0;strokeColor=#252837;strokeWidth=3;align=center;verticalAlign=middle;spacing=5;arcSize=17;fontFamily=Helvetica;fontSource=https%3A%2F%2Ffonts.googleapis.com%2Fcss%3Ffamily%3DInter;fontSize=11;fontColor=default;fontStyle=1;fillColor=light-dark(#F6F7F7,#EDEDED);gradientColor=none;" parent="1" vertex="1" connectable="0">
          <mxGeometry x="847" y="551" width="120" height="68" as="geometry" />
        </mxCell>
        <mxCell id="mGn7jOfgkNFTlXE9YCIS-2" value="" style="group;rounded=1;shadow=0;glass=0;pointerEvents=0;strokeColor=#252837;strokeWidth=3;align=center;verticalAlign=middle;spacing=5;arcSize=17;fontFamily=Helvetica;fontSource=https%3A%2F%2Ffonts.googleapis.com%2Fcss%3Ffamily%3DInter;fontSize=11;fontColor=default;fontStyle=1;labelBackgroundColor=default;fillColor=light-dark(#F6F7F7,#EDEDED);gradientColor=none;" parent="mGn7jOfgkNFTlXE9YCIS-1" vertex="1" connectable="0">
          <mxGeometry x="9" y="57" width="102" height="11" as="geometry" />
        </mxCell>
        <mxCell id="mGn7jOfgkNFTlXE9YCIS-3" value="" style="rounded=1;whiteSpace=wrap;arcSize=50;fontFamily=Inter;textShadow=0;html=1;glass=0;shadow=0;perimeterSpacing=5;strokeWidth=2;strokeColor=#739AFE;fontSource=https%3A%2F%2Ffonts.googleapis.com%2Fcss%3Ffamily%3DInter;fontStyle=1;fontSize=14;fillColor=light-dark(#B2CDFF,#EDEDED);fontColor=#3761F7;pointerEvents=0;align=center;verticalAlign=middle;spacing=5;labelBackgroundColor=default;" parent="mGn7jOfgkNFTlXE9YCIS-2" vertex="1">
          <mxGeometry x="9" y="5" width="84" height="6" as="geometry" />
        </mxCell>
        <mxCell id="mGn7jOfgkNFTlXE9YCIS-4" value="" style="rounded=1;whiteSpace=wrap;spacing=5;arcSize=50;fontFamily=Inter;textShadow=0;html=1;glass=0;shadow=0;perimeterSpacing=5;strokeWidth=2;strokeColor=#739AFE;fontSource=https%3A%2F%2Ffonts.googleapis.com%2Fcss%3Ffamily%3DInter;fontStyle=1;fontSize=14;fillColor=light-dark(#B2CDFF,#EDEDED);fontColor=#3761F7;pointerEvents=0;align=center;verticalAlign=middle;labelBackgroundColor=default;" parent="mGn7jOfgkNFTlXE9YCIS-2" vertex="1">
          <mxGeometry width="102" height="7" as="geometry" />
        </mxCell>
        <mxCell id="mGn7jOfgkNFTlXE9YCIS-5" value="Text" style="rounded=1;whiteSpace=wrap;arcSize=14;fontFamily=Inter;textShadow=0;html=1;glass=0;shadow=0;perimeterSpacing=5;strokeWidth=3;strokeColor=#3761F7;fontSource=https%3A%2F%2Ffonts.googleapis.com%2Fcss%3Ffamily%3DInter;fontStyle=1;fontSize=14;fillColor=light-dark(#F6FAFF,#EDEDED);fontColor=#3761F7;labelBackgroundColor=#F6FAFF;pointerEvents=0;align=center;verticalAlign=middle;spacing=5;" parent="mGn7jOfgkNFTlXE9YCIS-1" vertex="1">
          <mxGeometry y="-7" width="120" height="67" as="geometry" />
        </mxCell>
        <mxCell id="Bbh1gw7Dnu3V3_fF4XaS-1" value="" style="group;labelBackgroundColor=default;rounded=1;shadow=0;glass=0;pointerEvents=0;strokeColor=#252837;strokeWidth=3;align=center;verticalAlign=middle;spacing=5;arcSize=17;fontFamily=Helvetica;fontSource=https%3A%2F%2Ffonts.googleapis.com%2Fcss%3Ffamily%3DInter;fontSize=11;fontColor=default;fontStyle=1;fillColor=light-dark(#F6F7F7,#EDEDED);gradientColor=none;" vertex="1" connectable="0" parent="1">
          <mxGeometry x="730" y="510" width="120" height="68" as="geometry" />
        </mxCell>
        <mxCell id="Bbh1gw7Dnu3V3_fF4XaS-2" value="" style="group;rounded=1;shadow=0;glass=0;pointerEvents=0;strokeColor=#252837;strokeWidth=3;align=center;verticalAlign=middle;spacing=5;arcSize=17;fontFamily=Helvetica;fontSource=https%3A%2F%2Ffonts.googleapis.com%2Fcss%3Ffamily%3DInter;fontSize=11;fontColor=default;fontStyle=1;labelBackgroundColor=default;fillColor=light-dark(#F6F7F7,#EDEDED);gradientColor=none;" vertex="1" connectable="0" parent="Bbh1gw7Dnu3V3_fF4XaS-1">
          <mxGeometry x="9" y="57" width="102" height="11" as="geometry" />
        </mxCell>
        <mxCell id="Bbh1gw7Dnu3V3_fF4XaS-3" value="" style="rounded=1;whiteSpace=wrap;arcSize=50;fontFamily=Inter;textShadow=0;html=1;glass=0;shadow=0;perimeterSpacing=5;strokeWidth=2;strokeColor=#739AFE;fontSource=https%3A%2F%2Ffonts.googleapis.com%2Fcss%3Ffamily%3DInter;fontStyle=1;fontSize=14;fillColor=light-dark(#B2CDFF,#EDEDED);fontColor=#3761F7;pointerEvents=0;align=center;verticalAlign=middle;spacing=5;labelBackgroundColor=default;" vertex="1" parent="Bbh1gw7Dnu3V3_fF4XaS-2">
          <mxGeometry x="9" y="5" width="84" height="6" as="geometry" />
        </mxCell>
        <mxCell id="Bbh1gw7Dnu3V3_fF4XaS-4" value="" style="rounded=1;whiteSpace=wrap;spacing=5;arcSize=50;fontFamily=Inter;textShadow=0;html=1;glass=0;shadow=0;perimeterSpacing=5;strokeWidth=2;strokeColor=#739AFE;fontSource=https%3A%2F%2Ffonts.googleapis.com%2Fcss%3Ffamily%3DInter;fontStyle=1;fontSize=14;fillColor=light-dark(#B2CDFF,#EDEDED);fontColor=#3761F7;pointerEvents=0;align=center;verticalAlign=middle;labelBackgroundColor=default;" vertex="1" parent="Bbh1gw7Dnu3V3_fF4XaS-2">
          <mxGeometry width="102" height="7" as="geometry" />
        </mxCell>
        <mxCell id="Bbh1gw7Dnu3V3_fF4XaS-5" value="Text" style="rounded=1;whiteSpace=wrap;arcSize=14;fontFamily=Inter;textShadow=0;html=1;glass=0;shadow=0;perimeterSpacing=5;strokeWidth=3;strokeColor=#3761F7;fontSource=https%3A%2F%2Ffonts.googleapis.com%2Fcss%3Ffamily%3DInter;fontStyle=1;fontSize=14;fillColor=light-dark(#F6FAFF,#EDEDED);fontColor=#3761F7;labelBackgroundColor=#F6FAFF;pointerEvents=0;align=center;verticalAlign=middle;spacing=5;" vertex="1" parent="Bbh1gw7Dnu3V3_fF4XaS-1">
          <mxGeometry y="-7" width="120" height="67" as="geometry" />
        </mxCell>
        <mxCell id="Bbh1gw7Dnu3V3_fF4XaS-6" value="" style="group;labelBackgroundColor=#F6FAFF;rounded=1;shadow=0;glass=0;pointerEvents=0;strokeColor=#252837;strokeWidth=3;align=center;verticalAlign=middle;spacing=5;arcSize=17;fontFamily=Helvetica;fontSource=https%3A%2F%2Ffonts.googleapis.com%2Fcss%3Ffamily%3DInter;fontSize=11;fontColor=default;fontStyle=1;fillColor=light-dark(#F6F7F7,#EDEDED);gradientColor=none;" vertex="1" connectable="0" parent="1">
          <mxGeometry x="730" y="507.0000000000002" width="121" height="74" as="geometry" />
        </mxCell>
        <mxCell id="Bbh1gw7Dnu3V3_fF4XaS-7" value="" style="group;fontColor=none;noLabel=1;fontSize=1;movable=1;resizable=1;rotatable=1;deletable=1;editable=1;locked=0;connectable=1;rounded=1;shadow=0;glass=0;pointerEvents=0;strokeColor=#252837;strokeWidth=3;align=center;verticalAlign=middle;spacing=5;arcSize=17;fontFamily=Helvetica;fontSource=https%3A%2F%2Ffonts.googleapis.com%2Fcss%3Ffamily%3DInter;fontStyle=1;labelBackgroundColor=default;fillColor=light-dark(#F6F7F7,#EDEDED);gradientColor=none;" vertex="1" connectable="0" parent="Bbh1gw7Dnu3V3_fF4XaS-6">
          <mxGeometry x="9.072403433476438" y="60.91156462585033" width="102.84999999999998" height="13.088435374149658" as="geometry" />
        </mxCell>
        <mxCell id="Bbh1gw7Dnu3V3_fF4XaS-8" value="" style="group;movable=1;resizable=1;rotatable=1;deletable=1;editable=1;locked=0;connectable=1;rounded=1;shadow=0;glass=0;pointerEvents=0;strokeColor=#252837;strokeWidth=3;align=center;verticalAlign=middle;spacing=5;arcSize=17;fontFamily=Helvetica;fontSource=https%3A%2F%2Ffonts.googleapis.com%2Fcss%3Ffamily%3DInter;fontSize=11;fontColor=default;fontStyle=1;labelBackgroundColor=default;fillColor=light-dark(#F6F7F7,#EDEDED);gradientColor=none;" vertex="1" connectable="0" parent="Bbh1gw7Dnu3V3_fF4XaS-7">
          <mxGeometry width="102.84999999999998" height="13.088435374149658" as="geometry" />
        </mxCell>
        <mxCell id="Bbh1gw7Dnu3V3_fF4XaS-9" value="" style="rounded=0;arcSize=0;fontFamily=Inter;textShadow=0;glass=0;shadow=0;perimeterSpacing=5;spacing=5;strokeWidth=3;strokeColor=#739AFE;fontSource=https%3A%2F%2Ffonts.googleapis.com%2Fcss%3Ffamily%3DInter;fontStyle=1;fontSize=14;fillColor=light-dark(#B2CDFF,#EDEDED);fontColor=none;labelBackgroundColor=default;movable=1;resizable=1;rotatable=1;deletable=1;editable=1;locked=0;connectable=1;noLabel=1;pointerEvents=0;align=center;verticalAlign=middle;" vertex="1" parent="Bbh1gw7Dnu3V3_fF4XaS-8">
          <mxGeometry x="9.077596566523605" y="3.5238095238095233" width="84.69999999999997" height="9.564625850340136" as="geometry" />
        </mxCell>
        <mxCell id="Bbh1gw7Dnu3V3_fF4XaS-10" value="" style="rounded=0;whiteSpace=wrap;arcSize=0;fontFamily=Inter;textShadow=0;html=1;glass=0;shadow=0;perimeterSpacing=5;strokeWidth=3;strokeColor=#739AFE;fontSource=https%3A%2F%2Ffonts.googleapis.com%2Fcss%3Ffamily%3DInter;fontStyle=1;fontSize=14;fillColor=light-dark(#B2CDFF,#EDEDED);fontColor=#3761F7;labelBackgroundColor=default;movable=1;resizable=1;rotatable=1;deletable=1;editable=1;locked=0;connectable=1;pointerEvents=0;align=center;verticalAlign=middle;spacing=5;" vertex="1" parent="Bbh1gw7Dnu3V3_fF4XaS-8">
          <mxGeometry width="102.84999999999998" height="7.460408163265305" as="geometry" />
        </mxCell>
        <mxCell id="Bbh1gw7Dnu3V3_fF4XaS-11" value="Text" style="rounded=0;whiteSpace=wrap;arcSize=0;fontFamily=Inter;textShadow=0;html=1;glass=0;shadow=0;perimeterSpacing=5;strokeWidth=3;strokeColor=#3761F7;fontSource=https%3A%2F%2Ffonts.googleapis.com%2Fcss%3Ffamily%3DInter;fontStyle=1;fontSize=14;fillColor=#F6FAFF;fontColor=#3761F7;labelBackgroundColor=none;movable=1;resizable=1;rotatable=1;deletable=1;editable=1;locked=0;connectable=1;pointerEvents=0;align=center;verticalAlign=middle;spacing=5;" vertex="1" parent="Bbh1gw7Dnu3V3_fF4XaS-6">
          <mxGeometry width="120.99999999999999" height="62.535211267605625" as="geometry" />
        </mxCell>
        <mxCell id="Bbh1gw7Dnu3V3_fF4XaS-12" value="" style="group;labelBackgroundColor=default;rounded=1;shadow=0;glass=0;pointerEvents=0;strokeColor=#252837;strokeWidth=3;align=center;verticalAlign=middle;spacing=5;arcSize=17;fontFamily=Helvetica;fontSource=https%3A%2F%2Ffonts.googleapis.com%2Fcss%3Ffamily%3DInter;fontSize=11;fontColor=default;fontStyle=1;fillColor=light-dark(#F6F7F7,#EDEDED);gradientColor=none;" vertex="1" connectable="0" parent="1">
          <mxGeometry x="730" y="510" width="120" height="68" as="geometry" />
        </mxCell>
        <mxCell id="Bbh1gw7Dnu3V3_fF4XaS-13" value="" style="group;rounded=1;shadow=0;glass=0;pointerEvents=0;strokeColor=#252837;strokeWidth=3;align=center;verticalAlign=middle;spacing=5;arcSize=17;fontFamily=Helvetica;fontSource=https%3A%2F%2Ffonts.googleapis.com%2Fcss%3Ffamily%3DInter;fontSize=11;fontColor=default;fontStyle=1;labelBackgroundColor=default;fillColor=light-dark(#F6F7F7,#EDEDED);gradientColor=none;" vertex="1" connectable="0" parent="Bbh1gw7Dnu3V3_fF4XaS-12">
          <mxGeometry x="9" y="57" width="102" height="11" as="geometry" />
        </mxCell>
        <mxCell id="Bbh1gw7Dnu3V3_fF4XaS-14" value="" style="rounded=1;whiteSpace=wrap;arcSize=50;fontFamily=Inter;textShadow=0;html=1;glass=0;shadow=0;perimeterSpacing=5;strokeWidth=2;strokeColor=#739AFE;fontSource=https%3A%2F%2Ffonts.googleapis.com%2Fcss%3Ffamily%3DInter;fontStyle=1;fontSize=14;fillColor=light-dark(#B2CDFF,#EDEDED);fontColor=#3761F7;pointerEvents=0;align=center;verticalAlign=middle;spacing=5;labelBackgroundColor=default;" vertex="1" parent="Bbh1gw7Dnu3V3_fF4XaS-13">
          <mxGeometry x="9" y="5" width="84" height="6" as="geometry" />
        </mxCell>
        <mxCell id="Bbh1gw7Dnu3V3_fF4XaS-15" value="" style="rounded=1;whiteSpace=wrap;spacing=5;arcSize=50;fontFamily=Inter;textShadow=0;html=1;glass=0;shadow=0;perimeterSpacing=5;strokeWidth=2;strokeColor=#739AFE;fontSource=https%3A%2F%2Ffonts.googleapis.com%2Fcss%3Ffamily%3DInter;fontStyle=1;fontSize=14;fillColor=light-dark(#B2CDFF,#EDEDED);fontColor=#3761F7;pointerEvents=0;align=center;verticalAlign=middle;labelBackgroundColor=default;" vertex="1" parent="Bbh1gw7Dnu3V3_fF4XaS-13">
          <mxGeometry width="102" height="7" as="geometry" />
        </mxCell>
        <mxCell id="Bbh1gw7Dnu3V3_fF4XaS-16" value="Text" style="rounded=1;whiteSpace=wrap;arcSize=14;fontFamily=Inter;textShadow=0;html=1;glass=0;shadow=0;perimeterSpacing=5;strokeWidth=3;strokeColor=#3761F7;fontSource=https%3A%2F%2Ffonts.googleapis.com%2Fcss%3Ffamily%3DInter;fontStyle=1;fontSize=14;fillColor=light-dark(#F6FAFF,#EDEDED);fontColor=#3761F7;labelBackgroundColor=#F6FAFF;pointerEvents=0;align=center;verticalAlign=middle;spacing=5;" vertex="1" parent="Bbh1gw7Dnu3V3_fF4XaS-12">
          <mxGeometry y="-7" width="120" height="67" as="geometry" />
        </mxCell>
        <mxCell id="Bbh1gw7Dnu3V3_fF4XaS-18" value="" style="group;fontColor=none;noLabel=1;fontSize=1;movable=1;resizable=1;rotatable=1;deletable=1;editable=1;locked=0;connectable=1;rounded=1;shadow=0;glass=0;pointerEvents=0;strokeColor=#252837;strokeWidth=3;align=center;verticalAlign=middle;spacing=5;arcSize=17;fontFamily=Helvetica;fontSource=https%3A%2F%2Ffonts.googleapis.com%2Fcss%3Ffamily%3DInter;fontStyle=1;labelBackgroundColor=default;fillColor=light-dark(#F6F7F7,#EDEDED);gradientColor=none;" vertex="1" connectable="0" parent="1">
          <mxGeometry x="498.07240343347644" y="324.9115646258506" width="102.84999999999998" height="13.088435374149658" as="geometry" />
        </mxCell>
        <mxCell id="Bbh1gw7Dnu3V3_fF4XaS-25" value="" style="group" vertex="1" connectable="0" parent="1">
          <mxGeometry x="562.9300000000001" y="349.47000000000025" width="121" height="74.61999999999995" as="geometry" />
        </mxCell>
        <mxCell id="Bbh1gw7Dnu3V3_fF4XaS-24" value="" style="group" vertex="1" connectable="0" parent="Bbh1gw7Dnu3V3_fF4XaS-25">
          <mxGeometry x="9.072403433476438" y="61.53156462585031" width="102.85000000000002" height="13.08843537414964" as="geometry" />
        </mxCell>
        <mxCell id="Bbh1gw7Dnu3V3_fF4XaS-20" value="" style="rounded=0;arcSize=0;fontFamily=Inter;textShadow=0;glass=0;shadow=0;perimeterSpacing=5;spacing=5;strokeWidth=3;strokeColor=#739AFE;fontSource=https%3A%2F%2Ffonts.googleapis.com%2Fcss%3Ffamily%3DInter;fontStyle=1;fontSize=14;fillColor=light-dark(#B2CDFF,#EDEDED);fontColor=none;labelBackgroundColor=default;movable=1;resizable=1;rotatable=1;deletable=1;editable=1;locked=0;connectable=1;noLabel=1;pointerEvents=0;align=center;verticalAlign=middle;" vertex="1" parent="Bbh1gw7Dnu3V3_fF4XaS-24">
          <mxGeometry x="9.077596566523653" y="3.5238095238095184" width="84.69999999999997" height="9.564625850340136" as="geometry" />
        </mxCell>
        <mxCell id="Bbh1gw7Dnu3V3_fF4XaS-21" value="" style="rounded=0;whiteSpace=wrap;arcSize=0;fontFamily=Inter;textShadow=0;html=1;glass=0;shadow=0;perimeterSpacing=5;strokeWidth=3;strokeColor=#739AFE;fontSource=https%3A%2F%2Ffonts.googleapis.com%2Fcss%3Ffamily%3DInter;fontStyle=1;fontSize=14;fillColor=light-dark(#B2CDFF,#EDEDED);fontColor=#3761F7;labelBackgroundColor=default;movable=1;resizable=1;rotatable=1;deletable=1;editable=1;locked=0;connectable=1;pointerEvents=0;align=center;verticalAlign=middle;spacing=5;" vertex="1" parent="Bbh1gw7Dnu3V3_fF4XaS-24">
          <mxGeometry width="102.84999999999998" height="7.460408163265305" as="geometry" />
        </mxCell>
        <mxCell id="Bbh1gw7Dnu3V3_fF4XaS-22" value="Text" style="rounded=0;whiteSpace=wrap;arcSize=0;fontFamily=Inter;textShadow=0;html=1;glass=0;shadow=0;perimeterSpacing=5;strokeWidth=3;strokeColor=#3761F7;fontSource=https%3A%2F%2Ffonts.googleapis.com%2Fcss%3Ffamily%3DInter;fontStyle=1;fontSize=14;fillColor=#F6FAFF;fontColor=#3761F7;labelBackgroundColor=none;movable=1;resizable=1;rotatable=1;deletable=1;editable=1;locked=0;connectable=1;pointerEvents=0;align=center;verticalAlign=middle;spacing=5;" vertex="1" parent="Bbh1gw7Dnu3V3_fF4XaS-25">
          <mxGeometry width="120.99999999999999" height="62.535211267605625" as="geometry" />
        </mxCell>
        <mxCell id="Bbh1gw7Dnu3V3_fF4XaS-33" value="" style="group" vertex="1" connectable="0" parent="1">
          <mxGeometry x="517" y="478" width="120" height="77" as="geometry" />
        </mxCell>
        <mxCell id="Bbh1gw7Dnu3V3_fF4XaS-32" value="" style="group" vertex="1" connectable="0" parent="Bbh1gw7Dnu3V3_fF4XaS-33">
          <mxGeometry x="9" y="65" width="102" height="12" as="geometry" />
        </mxCell>
        <mxCell id="Bbh1gw7Dnu3V3_fF4XaS-28" value="" style="rounded=1;whiteSpace=wrap;arcSize=50;fontFamily=Inter;textShadow=0;html=1;glass=0;shadow=0;perimeterSpacing=5;strokeWidth=2;strokeColor=#739AFE;fontSource=https%3A%2F%2Ffonts.googleapis.com%2Fcss%3Ffamily%3DInter;fontStyle=1;fontSize=14;fillColor=light-dark(#B2CDFF,#EDEDED);fontColor=#3761F7;pointerEvents=0;align=center;verticalAlign=middle;spacing=5;labelBackgroundColor=default;" vertex="1" parent="Bbh1gw7Dnu3V3_fF4XaS-32">
          <mxGeometry x="9" y="5" width="84" height="7" as="geometry" />
        </mxCell>
        <mxCell id="Bbh1gw7Dnu3V3_fF4XaS-29" value="" style="rounded=1;whiteSpace=wrap;spacing=5;arcSize=50;fontFamily=Inter;textShadow=0;html=1;glass=0;shadow=0;perimeterSpacing=5;strokeWidth=2;strokeColor=#739AFE;fontSource=https%3A%2F%2Ffonts.googleapis.com%2Fcss%3Ffamily%3DInter;fontStyle=1;fontSize=14;fillColor=light-dark(#B2CDFF,#EDEDED);fontColor=#3761F7;pointerEvents=0;align=center;verticalAlign=middle;labelBackgroundColor=default;" vertex="1" parent="Bbh1gw7Dnu3V3_fF4XaS-32">
          <mxGeometry width="102" height="7" as="geometry" />
        </mxCell>
        <mxCell id="Bbh1gw7Dnu3V3_fF4XaS-30" value="Text" style="rounded=1;whiteSpace=wrap;arcSize=14;fontFamily=Inter;textShadow=0;html=1;glass=0;shadow=0;perimeterSpacing=5;strokeWidth=3;strokeColor=#3761F7;fontSource=https%3A%2F%2Ffonts.googleapis.com%2Fcss%3Ffamily%3DInter;fontStyle=1;fontSize=14;fillColor=light-dark(#F6FAFF,#EDEDED);fontColor=#3761F7;labelBackgroundColor=#F6FAFF;pointerEvents=0;align=center;verticalAlign=middle;spacing=5;" vertex="1" parent="Bbh1gw7Dnu3V3_fF4XaS-33">
          <mxGeometry width="120" height="67" as="geometry" />
        </mxCell>
      </root>
    </mxGraphModel>
  </diagram>
</mxfile>
